<svg width="43" height="42" viewBox="0 0 43 42" fill="none" xmlns="http://www.w3.org/2000/svg">
<g filter="url(#filter0_d_56_88)">
<path d="M29.2746 20.1352C29.1361 20.1868 28.9827 20.2083 28.8356 20.21C28.1655 20.2175 27.4954 20.2126 26.8253 20.2135C26.7561 20.2135 26.6872 20.2201 26.6027 20.2249V20.5674C26.6027 23.0334 26.591 25.4999 26.6105 27.9659C26.6156 28.5883 26.2088 29.0061 25.6908 28.9999C24.4418 28.9846 23.1923 28.9951 21.9432 28.9947C21.8802 28.9947 21.8172 28.9881 21.7296 28.9833V23.5609H17.2704V28.9833C17.1832 28.9881 17.1198 28.9947 17.0568 28.9947C15.8077 28.9951 14.5582 28.9846 13.3092 28.9999C12.7912 29.0061 12.3844 28.5883 12.3895 27.9659C12.409 25.4999 12.3977 23.0334 12.3977 20.5674V20.2249C12.3128 20.2201 12.2439 20.2135 12.1747 20.2135C11.5046 20.2126 10.8345 20.2175 10.1644 20.21C10.0173 20.2083 9.86392 20.1868 9.72544 20.1352C9.50754 20.0543 9.4426 19.8566 9.55253 19.6305C9.61043 19.5115 9.69179 19.4017 9.77942 19.3068C12.8863 15.9511 15.9951 12.5971 19.1043 9.24363C19.2526 9.08354 19.3762 9.00262 19.5002 9C19.6238 9.00262 19.7478 9.08354 19.8961 9.24363C23.0049 12.5971 26.1137 15.9511 29.221 19.3068C29.3082 19.4017 29.39 19.5115 29.4475 19.6305C29.5574 19.8566 29.4925 20.0543 29.2746 20.1352Z" fill="black"/>
<path d="M29.2746 20.1352C29.1361 20.1868 28.9827 20.2083 28.8356 20.21C28.1655 20.2175 27.4954 20.2126 26.8253 20.2135C26.7561 20.2135 26.6872 20.2201 26.6027 20.2249V20.5674C26.6027 23.0334 26.591 25.4999 26.6105 27.9659C26.6156 28.5883 26.2088 29.0061 25.6908 28.9999C24.4418 28.9846 23.1923 28.9951 21.9432 28.9947C21.8802 28.9947 21.8172 28.9881 21.7296 28.9833V23.5609H17.2704V28.9833C17.1832 28.9881 17.1198 28.9947 17.0568 28.9947C15.8077 28.9951 14.5582 28.9846 13.3092 28.9999C12.7912 29.0061 12.3844 28.5883 12.3895 27.9659C12.409 25.4999 12.3977 23.0334 12.3977 20.5674V20.2249C12.3128 20.2201 12.2439 20.2135 12.1747 20.2135C11.5046 20.2126 10.8345 20.2175 10.1644 20.21C10.0173 20.2083 9.86392 20.1868 9.72544 20.1352C9.50754 20.0543 9.4426 19.8566 9.55253 19.6305C9.61043 19.5115 9.69179 19.4017 9.77942 19.3068C12.8863 15.9511 15.9951 12.5971 19.1043 9.24363C19.2526 9.08354 19.3762 9.00262 19.5002 9C19.6238 9.00262 19.7478 9.08354 19.8961 9.24363C23.0049 12.5971 26.1137 15.9511 29.221 19.3068C29.3082 19.4017 29.39 19.5115 29.4475 19.6305C29.5574 19.8566 29.4925 20.0543 29.2746 20.1352Z" stroke="black" stroke-width="1.2"/>
</g>
<defs>
<filter id="filter0_d_56_88" x="0.899841" y="0.399902" width="41.2003" height="41.2002" filterUnits="userSpaceOnUse" color-interpolation-filters="sRGB">
<feFlood flood-opacity="0" result="BackgroundImageFix"/>
<feColorMatrix in="SourceAlpha" type="matrix" values="0 0 0 0 0 0 0 0 0 0 0 0 0 0 0 0 0 0 127 0" result="hardAlpha"/>
<feOffset dx="2" dy="2"/>
<feGaussianBlur stdDeviation="5"/>
<feComposite in2="hardAlpha" operator="out"/>
<feColorMatrix type="matrix" values="0 0 0 0 0 0 0 0 0 0 0 0 0 0 0 0 0 0 0.15 0"/>
<feBlend mode="normal" in2="BackgroundImageFix" result="effect1_dropShadow_56_88"/>
<feBlend mode="normal" in="SourceGraphic" in2="effect1_dropShadow_56_88" result="shape"/>
</filter>
</defs>
</svg>
