<svg width="134" height="100" viewBox="0 0 134 100" fill="none" xmlns="http://www.w3.org/2000/svg">
<g filter="url(#filter0_d_140_317)">
<path fill-rule="evenodd" clip-rule="evenodd" d="M77.4108 86.7179C80.548 62.3287 109.705 49.6686 114.937 23.0584C118.134 6.77615 116.245 43.2616 96.3191 57.9378C91.9596 61.278 83.8219 74.3055 80.1462 87.9992C81.7532 84.6676 85.9162 81.0541 96.6098 82.6516C96.6098 82.6516 108.825 84.9752 118.134 67.0955C118.134 67.0955 109.842 71.8879 102.858 68.9834C102.858 68.9834 133.837 71.8879 115.946 8.66406C115.946 8.66406 114.347 23.7845 87.583 46.0209C60.8361 68.2573 76.6842 82.643 77.4108 86.7179Z" fill="#BD9938"/>
<path fill-rule="evenodd" clip-rule="evenodd" d="M60.2055 78.9934C53.216 55.3945 22.4209 47.5339 13.0132 22.0618C7.25403 6.48605 14.9528 42.2393 36.9554 53.5641C41.7917 56.1729 51.9001 67.7457 57.719 80.687C55.5999 77.6505 50.9174 74.7424 40.6125 78.0354C40.6125 78.0354 28.9319 82.2865 16.8839 66.1034C16.8839 66.1034 25.8302 69.5162 32.2558 65.5303C32.2558 65.5303 2.15283 73.3567 9.70635 8C9.70635 8 13.6967 22.6862 43.663 40.3918C73.6207 58.0974 60.2739 74.8535 60.2055 78.9934Z" fill="#BD9938"/>
<path fill-rule="evenodd" clip-rule="evenodd" d="M67.9139 57.8613C74.9379 46.1271 66.6683 30.507 73.5483 17.0733C77.7594 8.85757 66.0414 25.4427 69.6169 38.7483C70.3541 41.7203 69.4051 50.2264 66.2871 57.4685C66.7361 55.4615 66.1769 52.4383 61 49.4321C61 49.4321 54.908 46.221 57.0262 35.187C57.0262 35.187 58.9665 40.1489 62.9911 41.3018C62.9911 41.3018 48.5787 31.8478 78.0559 10.4375C78.0559 10.4375 73.5568 17.5942 77.4967 36.562C81.4366 55.5384 69.6254 56.3326 67.9139 57.8613Z" fill="#BD9938"/>
</g>
<defs>
<filter id="filter0_d_140_317" x="0.490234" y="0" width="133.019" height="100" filterUnits="userSpaceOnUse" color-interpolation-filters="sRGB">
<feFlood flood-opacity="0" result="BackgroundImageFix"/>
<feColorMatrix in="SourceAlpha" type="matrix" values="0 0 0 0 0 0 0 0 0 0 0 0 0 0 0 0 0 0 127 0" result="hardAlpha"/>
<feOffset dx="2" dy="2"/>
<feGaussianBlur stdDeviation="5"/>
<feComposite in2="hardAlpha" operator="out"/>
<feColorMatrix type="matrix" values="0 0 0 0 0 0 0 0 0 0 0 0 0 0 0 0 0 0 0.15 0"/>
<feBlend mode="normal" in2="BackgroundImageFix" result="effect1_dropShadow_140_317"/>
<feBlend mode="normal" in="SourceGraphic" in2="effect1_dropShadow_140_317" result="shape"/>
</filter>
</defs>
</svg>
