<svg width="28" height="34" viewBox="0 0 28 34" fill="none" xmlns="http://www.w3.org/2000/svg">
<path d="M9.01643 28.673H8.6591C6.76759 28.673 4.87607 28.6785 2.98374 28.673C1.75852 28.6685 0.801284 27.8525 0.559518 26.5661C0.358728 25.4757 0.668518 24.564 1.45037 23.8711C1.80113 23.5593 2.16829 23.2694 2.52643 22.9667C2.72925 22.8018 2.90087 22.594 3.03151 22.3553C3.16214 22.1166 3.24923 21.8516 3.28779 21.5754C3.71477 18.7063 4.177 15.8427 4.55809 12.9663C4.98917 9.71696 6.34552 7.14778 8.87054 5.40552C9.43849 5.01349 10.0761 4.7418 10.6957 4.45462C10.9022 4.35889 10.9678 4.26043 10.9694 4.02065C10.9825 2.60204 11.7201 1.47609 12.8544 1.1178C14.5213 0.589921 16.1268 1.89457 16.1989 3.86475C16.212 4.22943 16.3079 4.37074 16.6136 4.50294C19.9549 5.93431 21.9407 8.62656 22.5439 12.5505C23.0086 15.5591 23.4454 18.5796 23.8912 21.5946C23.9668 22.1292 24.2266 22.6099 24.6157 22.9348C24.9632 23.2347 25.3189 23.521 25.668 23.8191C26.5556 24.5777 26.8907 25.7292 26.5523 26.846C26.2138 27.9628 25.323 28.6694 24.2067 28.6694C22.3152 28.6776 20.4237 28.6694 18.5322 28.6694H18.1667C17.5512 31.3844 16.0621 33.0455 13.5051 32.999C11.0358 32.9608 9.59912 31.3188 9.01643 28.673ZM13.5813 27.2052V27.1943C14.9106 27.1943 16.2399 27.1943 17.5692 27.1943C19.7776 27.1943 21.9863 27.1973 24.1953 27.2034C24.7616 27.2034 25.1525 26.9043 25.3107 26.3828C25.4688 25.8613 25.3156 25.3599 24.8697 24.9752C24.5141 24.6688 24.1485 24.3771 23.7953 24.068C23.1617 23.5306 22.7364 22.7444 22.6062 21.8699C22.4152 20.6501 22.2382 19.4275 22.0562 18.2058C21.7612 16.2228 21.5121 14.229 21.1621 12.257C20.9633 11.1238 20.5595 10.0475 19.9753 9.09325C19.3911 8.13902 18.6387 7.32681 17.7637 6.70593C16.8887 6.08505 15.9095 5.66845 14.8854 5.48143C13.8612 5.2944 12.8136 5.34085 11.8062 5.61795C8.71401 6.47677 6.72989 8.6685 6.06196 12.1147C5.48827 15.0878 5.10391 18.1092 4.70315 21.1205C4.51137 22.561 4.00407 23.7125 2.88293 24.5002C2.63327 24.6786 2.39701 24.8792 2.17648 25.1001C2.06723 25.2039 1.97799 25.3313 1.91415 25.4746C1.8503 25.6178 1.81317 25.7739 1.80498 25.9335C1.79678 26.0931 1.8177 26.253 1.86648 26.4033C1.91525 26.5537 1.99088 26.6916 2.08879 26.8086C2.36006 27.1423 2.70673 27.2107 3.09028 27.2098C6.58701 27.2037 10.084 27.2031 13.5813 27.2079V27.2052ZM10.4129 28.6913C10.6096 30.3214 12.0938 31.6178 13.6862 31.5677C15.2024 31.5203 16.6546 30.1627 16.7521 28.6913H10.4129ZM14.8868 3.95136C14.8967 3.35237 14.6631 2.90564 14.2025 2.63395C13.9878 2.49623 13.7409 2.4333 13.4937 2.45329C13.2465 2.47328 13.0104 2.57528 12.8158 2.74609C12.6408 2.87757 12.5005 3.05852 12.4091 3.27035C12.3178 3.48218 12.2789 3.71723 12.2963 3.95136H14.8868Z" fill="black" stroke="black" stroke-width="0.8"/>
<rect x="15.1453" y="5.33984" width="11.8" height="11.8" rx="5.9" fill="black"/>
<rect x="15.1453" y="5.33984" width="11.8" height="11.8" rx="5.9" stroke="black"/>
<path d="M21.8333 15.2383H21.0422V10.1797C21.0422 9.98763 21.0422 9.82324 21.0422 9.68652C21.0455 9.54655 21.0487 9.4196 21.052 9.30566C21.0585 9.18848 21.0667 9.06966 21.0764 8.94922C20.9755 9.05339 20.8811 9.1429 20.7932 9.21777C20.7053 9.28939 20.5963 9.37891 20.4661 9.48633L19.6506 10.1406L19.2258 9.58887L21.1594 8.09961H21.8333V15.2383Z" fill="black"/>
</svg>
