<svg width="17" height="17" viewBox="0 0 17 17" fill="none" xmlns="http://www.w3.org/2000/svg">
<path d="M1.53537 16.1273C1.69433 15.6548 1.83563 15.2353 1.97694 14.8158C2.1359 14.3434 2.3037 13.8753 2.445 13.394C2.47591 13.2836 2.45383 13.1202 2.39201 13.0275C1.58394 11.8352 1.10263 10.5326 1.0099 9.09311C0.846521 6.58059 1.67667 4.44339 3.49152 2.69478C4.67492 1.55112 6.07911 0.822534 7.69966 0.597334C11.0114 0.138103 13.6608 1.30826 15.617 4.01507C16.3765 5.06601 16.8092 6.26707 16.9461 7.55204C17.1934 9.82611 16.5884 11.8617 15.1224 13.6236C14.0185 14.9527 12.6143 15.8403 10.9364 16.2509C9.06411 16.7146 7.24043 16.5335 5.49624 15.6857C5.25337 15.5665 5.01493 15.4473 4.79414 15.2971C4.62635 15.1779 4.47621 15.1823 4.29517 15.2442C3.46944 15.5179 2.63929 15.7829 1.80914 16.0478C1.7429 16.0743 1.66784 16.092 1.53537 16.1273ZM4.35699 6.37305C4.39231 6.61591 4.41881 6.85877 4.4718 7.09722C4.63959 7.82581 5.05025 8.42634 5.46533 9.02688C6.7238 10.8638 8.3576 12.1708 10.5301 12.7979C11.4662 13.0716 12.3052 13.0363 13.1221 12.4799C13.7138 12.0781 13.886 11.5041 13.8595 10.8373C13.8551 10.749 13.7845 10.6298 13.7138 10.59C13.0691 10.2677 12.42 9.94975 11.7665 9.64949C11.5104 9.53468 11.4088 9.59208 11.2366 9.81728C11.007 10.1131 10.7686 10.3957 10.5301 10.6828C10.4197 10.8196 10.2873 10.855 10.115 10.7887C8.72852 10.2412 7.66434 9.31389 6.89601 8.04218C6.77678 7.84789 6.80769 7.69775 6.95341 7.52554C7.16095 7.2871 7.35524 7.03099 7.52304 6.75721C7.58485 6.65565 7.58927 6.47461 7.54511 6.3598C7.30225 5.73719 7.04614 5.11899 6.77678 4.50521C6.72821 4.39041 6.63107 4.26677 6.52509 4.20936C6.22924 4.04157 5.49182 4.16079 5.24013 4.40365C4.68375 4.94237 4.36582 5.58264 4.35699 6.37305Z" fill="#29A706"/>
<path d="M4.35693 6.37282C4.36135 5.58241 4.68369 4.94214 5.24007 4.40343C5.49176 4.16056 6.22918 4.03692 6.52503 4.20913C6.63101 4.27095 6.72374 4.39018 6.77673 4.50499C7.04167 5.11877 7.3022 5.73696 7.54506 6.35957C7.58921 6.47438 7.5848 6.65542 7.52298 6.75698C7.3596 7.02634 7.16531 7.28245 6.95336 7.52531C6.80322 7.69753 6.77673 7.84766 6.89595 8.04195C7.66428 9.31367 8.72404 10.241 10.115 10.7885C10.2872 10.8547 10.4197 10.8194 10.5301 10.6825C10.7685 10.3955 11.007 10.1129 11.2366 9.81705C11.4088 9.59185 11.5148 9.53445 11.7665 9.64926C12.4244 9.94952 13.0691 10.2675 13.7138 10.5898C13.7888 10.6251 13.8595 10.7488 13.8595 10.8371C13.886 11.5038 13.7182 12.0779 13.1221 12.4797C12.3052 13.0361 11.4706 13.0714 10.5301 12.7976C8.36196 12.1662 6.72374 10.8636 5.46527 9.02665C5.0502 8.4217 4.63954 7.82117 4.47174 7.09699C4.41875 6.86296 4.39667 6.61568 4.35693 6.37282Z" fill="white"/>
</svg>
