<svg width="63" height="56" viewBox="0 0 63 56" fill="none" xmlns="http://www.w3.org/2000/svg">
<path d="M36.5524 50.9484C39.3423 48.1585 39.3423 43.6352 36.5524 40.8453C33.7625 38.0554 29.2392 38.0554 26.4493 40.8453C23.6594 43.6352 23.6594 48.1585 26.4493 50.9484C29.2392 53.7383 33.7625 53.7383 36.5524 50.9484Z" fill="#C71D1C"/>
<path d="M37.7558 27.8989L32.4233 33.2313C36.1726 33.507 39.6383 35.4446 41.8437 38.5244C42.8598 39.9501 44.8447 40.2809 46.2704 39.2648C47.696 38.2487 48.0269 36.2638 47.0108 34.8381C44.6951 31.5851 41.4342 29.1827 37.7558 27.8989Z" fill="#C71D1C"/>
<path d="M15.8118 38.2566L26.5712 27.4972C22.3493 28.6314 18.5764 31.1992 15.985 34.8382C15.2446 35.8779 15.221 37.209 15.8118 38.2566Z" fill="#C71D1C"/>
<path d="M46.7195 18.9353L42.0093 23.6455C44.9394 25.0318 47.6017 26.9931 49.815 29.4506C50.9886 30.7581 52.9971 30.8605 54.2968 29.6868C55.6043 28.5132 55.7067 26.5047 54.5331 25.2051C52.2725 22.6846 49.6181 20.5736 46.7195 18.9353Z" fill="#C71D1C"/>
<path d="M13.1887 29.4506C17.8517 24.2599 24.531 21.2826 31.5018 21.2826C31.9193 21.2826 32.3367 21.2904 32.7542 21.3141L38.3623 15.7059C36.1254 15.1939 33.8254 14.934 31.5018 14.934C22.7273 14.934 14.3309 18.6833 8.46279 25.213C7.28918 26.5205 7.39945 28.529 8.69909 29.6948C9.30559 30.2382 10.0617 30.506 10.8179 30.506C11.6922 30.506 12.5586 30.1516 13.1887 29.4506Z" fill="#C71D1C"/>
<path d="M42.8914 11.177L47.8379 6.23049C42.726 4.12744 37.2045 3.02472 31.5019 3.02472C19.8997 3.02472 9.03784 7.58527 0.901324 15.8714C-0.327424 17.1238 -0.311671 19.1323 0.940707 20.3611C1.55508 20.9676 2.35849 21.2669 3.16191 21.2669C3.98107 21.2669 4.80811 20.9518 5.43036 20.3138C12.3618 13.2564 21.6246 9.37325 31.5019 9.37325C35.4323 9.37325 39.2682 9.98763 42.8914 11.177Z" fill="#C71D1C"/>
<path d="M62.1025 15.8635C60.031 13.7526 57.7783 11.8858 55.3838 10.2711L50.7917 14.8632C53.2256 16.3834 55.5019 18.2107 57.5656 20.3138C58.7944 21.5661 60.8029 21.5819 62.0553 20.3532C63.3077 19.1244 63.3313 17.1159 62.1025 15.8635Z" fill="#C71D1C"/>
<path d="M36.0389 27.3948L40.4577 22.976L45.2703 18.1634L49.3976 14.0361L54.0369 9.39677L59.1252 4.3085C60.1098 3.32392 60.1098 1.72497 59.1252 0.7404C58.6369 0.252051 57.991 0 57.3451 0C56.6992 0 56.0533 0.244174 55.565 0.7404L49.4055 6.89989L44.5535 11.7519L40.1505 16.1549L34.8102 21.4952L29.3517 26.9537L16.9146 39.383L10.692 45.6055C9.70747 46.59 9.70747 48.189 10.692 49.1736C11.1804 49.6619 11.8263 49.914 12.4722 49.914C13.118 49.914 13.7639 49.6698 14.2523 49.1736L30.163 33.2628L36.0389 27.3948Z" fill="#C71D1C"/>
</svg>
